# xmcd
#
# Track frame offsets: 
#        150
#        13321
#        24347
#        34626
#        48470
#        63581
#        74341
#        88805
#        98966
#        116543
#
# Disc length: 1830 seconds
#
# Revision: 0
# Processed by: cddbd v1.5.2PL0 Copyright (c) Steve Scherf et al.
# Submitted via: ExactAudioCopy v1.0b1
#
DISCID=8507240a
DTITLE=Matuška Waldemar - Jo ho ho
DYEAR=1971
DGENRE=Country
TTITLE0=Jo ho ho
TTITLE1=Vracím se rád
TTITLE2=Čert ví, kdy kotvy zvednem
TTITLE3=Hříšník a fláma
TTITLE4=Má láska je za velkou louží
TTITLE5=Santiano
TTITLE6=Santa Lucia
TTITLE7=Jede se dál
TTITLE8=Deti z Pirea
TTITLE9=Směs písní o moři
EXTD=
EXTT0=
EXTT1=
EXTT2=
EXTT3=
EXTT4=
EXTT5=
EXTT6=
EXTT7=
EXTT8=
EXTT9=
PLAYORDER=
